<svg width="1000" height="331" viewBox="0 0 1000 331" fill="none" xmlns="http://www.w3.org/2000/svg">
<path d="M922.686 154.628H699.58V0.000209858H922.686C965.319 0.000209858 1000 34.6811 1000 77.3143C1000 119.947 965.319 154.628 922.686 154.628ZM769.162 55.2245V99.404H907.223C920.919 99.404 930.417 90.1263 930.417 77.3143C930.417 64.5022 920.919 55.2245 907.223 55.2245H769.162Z" fill="#0A0A0A"/>
<path d="M611.997 154.628V0.000209858H681.801V154.628H611.997Z" fill="#0A0A0A"/>
<path d="M519.082 53.0156H374.615V70.6873H519.082C525.267 70.6873 528.802 67.3739 528.802 61.8515C528.802 56.329 525.267 53.0156 519.082 53.0156ZM374.615 154.628H304.812V0.000209858H536.754C575.411 0.000209858 598.605 30.9258 598.605 61.8515C598.605 88.58 581.154 115.309 551.554 122.156L598.605 154.628H508.479L463.637 123.703H374.615V154.628Z" fill="#0A0A0A"/>
<path d="M217.363 97.1952V77.3144H287.166V154.628H77.314C34.6809 154.628 0 119.948 0 77.3144C0 34.6813 34.6809 0.000381529 77.314 0.000381529H287.166V57.4337H91.6724C79.523 57.4337 69.5826 65.1651 69.5826 77.3144C69.5826 89.4638 79.523 97.1952 91.6724 97.1952H217.363Z" fill="#0A0A0A"/>
<path d="M920.172 229.277H769.384V246.949H920.172C926.357 246.949 929.892 243.635 929.892 238.113C929.892 232.591 926.357 229.277 920.172 229.277ZM769.384 330.89H699.58V176.262L937.844 176.262C976.501 176.262 999.695 207.187 999.695 238.113C999.695 269.039 976.501 299.964 937.844 299.964H769.384V330.89Z" fill="#0A0A0A"/>
<path d="M611.998 330.89V176.262H681.801V330.89H611.998Z" fill="#0A0A0A"/>
<path d="M416.586 330.89V229.277H304.812V176.262H598.606V229.277H486.39V330.89H416.586Z" fill="#0A0A0A"/>
</svg>
