<svg width="1080" height="1080" viewBox="0 0 1080 1080" fill="none" xmlns="http://www.w3.org/2000/svg">
<g clip-path="url(#clip0_2003_376)">
<rect width="1080" height="1080" fill="#0A0A0A"/>
<g style="mix-blend-mode:luminosity" opacity="0.8">
<path d="M-462 539.477H1692" stroke="#343434"/>
<path d="M-190.68 1450.46L984.44 -360" stroke="#343434"/>
<path d="M211.642 1450.46L1386.76 -360" stroke="#343434"/>
<path d="M-462 153.606H1692" stroke="#343434"/>
<path d="M-462 925.347H1692" stroke="#343434"/>
</g>
<path d="M528.018 -208H876.76L650.29 140.742H301.548L528.018 -208Z" fill="#121212"/>
<path d="M928.86 -208H1277.6L1051.13 140.743H702.389L928.86 -208Z" fill="#121212"/>
<path d="M278.347 177.942H627.09L400.619 526.684H51.877L278.347 177.942Z" fill="#121212"/>
<path d="M679.19 177.942H1027.93L801.461 526.684H452.719L679.19 177.942Z" fill="#121212"/>
<path d="M1080.03 177.942H1428.77L1202.3 526.684H853.56L1080.03 177.942Z" fill="#121212"/>
<path d="M27.962 563.884H376.704L150.234 912.627H-198.509L27.962 563.884Z" fill="#121212"/>
<path d="M428.804 563.884H777.546L551.076 912.627H202.333L428.804 563.884Z" fill="#121212"/>
<path d="M829.645 563.884H1178.39L951.917 912.627H603.174L829.645 563.884Z" fill="#121212"/>
<path d="M-221.529 949.827H127.213L-99.2578 1298.57H-448L-221.529 949.827Z" fill="#121212"/>
<path d="M179.312 949.827H528.054L301.584 1298.57H-47.1582L179.312 949.827Z" fill="#121212"/>
<path d="M580.153 949.827H928.896L702.425 1298.57H353.683L580.153 949.827Z" fill="#121212"/>
</g>
<defs>
<clipPath id="clip0_2003_376">
<rect width="1080" height="1080" fill="white"/>
</clipPath>
</defs>
</svg>
